<?xml version="1.0" standalone="no"?>
<!DOCTYPE svg PUBLIC "-//W3C//DTD SVG 20010904//EN"
 "http://www.w3.org/TR/2001/REC-SVG-20010904/DTD/svg10.dtd">
<svg version="1.0" xmlns="http://www.w3.org/2000/svg"
 width="512.000000pt" height="512.000000pt" viewBox="0 0 512.000000 512.000000"
 preserveAspectRatio="xMidYMid meet">

<g transform="translate(0.000000,512.000000) scale(0.100000,-0.100000)"
fill="#000000" stroke="none">
<path d="M895 4626 c-37 -16 -70 -52 -84 -89 -8 -20 -11 -593 -11 -1882 l0
-1853 -109 -4 c-92 -2 -114 -6 -137 -24 -53 -39 -69 -71 -69 -134 0 -63 16
-95 69 -134 l27 -21 1979 0 1979 0 27 21 c53 39 69 71 69 134 0 63 -16 95 -69
134 -23 18 -45 22 -137 24 l-109 4 -2 1548 c-3 1546 -3 1549 -24 1576 -11 15
-33 37 -48 48 -27 21 -39 21 -616 24 l-589 2 -3 270 c-3 253 -4 270 -24 296
-11 15 -33 37 -48 48 -27 21 -35 21 -1034 23 -824 2 -1012 0 -1037 -11z m1827
-1855 c3 -1547 3 -1550 24 -1577 39 -53 71 -69 134 -69 63 0 95 16 134 69 21
27 21 33 24 1257 l2 1229 480 0 480 0 0 -1440 0 -1440 -800 0 -799 0 -3 269
c-3 254 -4 271 -24 297 -11 15 -33 37 -48 48 -27 20 -39 21 -406 21 -367 0
-379 -1 -406 -21 -15 -11 -37 -33 -48 -48 -20 -26 -21 -43 -24 -297 l-3 -269
-159 0 -160 0 0 1760 0 1760 800 0 800 0 2 -1549z m-642 -1811 l0 -160 -160 0
-160 0 0 160 0 160 160 0 160 0 0 -160z"/>
<path d="M1440 3840 l0 -160 160 0 160 0 0 160 0 160 -160 0 -160 0 0 -160z"/>
<path d="M2080 3840 l0 -160 160 0 160 0 0 160 0 160 -160 0 -160 0 0 -160z"/>
<path d="M1440 3200 l0 -160 160 0 160 0 0 160 0 160 -160 0 -160 0 0 -160z"/>
<path d="M2080 3200 l0 -160 160 0 160 0 0 160 0 160 -160 0 -160 0 0 -160z"/>
<path d="M3360 3200 l0 -160 160 0 160 0 0 160 0 160 -160 0 -160 0 0 -160z"/>
<path d="M1440 2560 l0 -160 160 0 160 0 0 160 0 160 -160 0 -160 0 0 -160z"/>
<path d="M2080 2560 l0 -160 160 0 160 0 0 160 0 160 -160 0 -160 0 0 -160z"/>
<path d="M3360 2560 l0 -160 160 0 160 0 0 160 0 160 -160 0 -160 0 0 -160z"/>
<path d="M1440 1920 l0 -160 160 0 160 0 0 160 0 160 -160 0 -160 0 0 -160z"/>
<path d="M2080 1920 l0 -160 160 0 160 0 0 160 0 160 -160 0 -160 0 0 -160z"/>
<path d="M3360 1920 l0 -160 160 0 160 0 0 160 0 160 -160 0 -160 0 0 -160z"/>
<path d="M3360 1280 l0 -160 160 0 160 0 0 160 0 160 -160 0 -160 0 0 -160z"/>
</g>
</svg>
