<?xml version="1.0" standalone="no"?>
<!DOCTYPE svg PUBLIC "-//W3C//DTD SVG 20010904//EN"
 "http://www.w3.org/TR/2001/REC-SVG-20010904/DTD/svg10.dtd">
<svg version="1.0" xmlns="http://www.w3.org/2000/svg"
 width="256.000000pt" height="256.000000pt" viewBox="0 0 256.000000 256.000000"
 preserveAspectRatio="xMidYMid meet">

<g transform="translate(0.000000,256.000000) scale(0.100000,-0.100000)"
fill="#000000" stroke="none">
<path d="M1223 2465 c-18 -7 -282 -219 -588 -471 -411 -337 -555 -461 -553
-475 2 -10 36 -59 77 -108 80 -98 98 -107 138 -69 l23 21 0 -521 0 -522 -108
0 c-71 0 -112 -4 -120 -12 -16 -16 -16 -200 0 -216 17 -17 2359 -17 2376 0 16
16 16 200 0 216 -7 7 -25 12 -40 12 -20 0 -28 5 -28 18 -1 58 -77 155 -131
167 -15 4 -37 21 -50 39 -38 56 -113 96 -179 96 -59 0 -106 -22 -157 -75 -28
-29 -62 -57 -75 -61 -42 -13 -78 -47 -103 -98 -14 -27 -25 -58 -25 -68 0 -17
-15 -18 -240 -18 l-240 0 0 468 c0 351 -3 471 -12 480 -17 17 -599 17 -616 0
-9 -9 -12 -129 -12 -480 l0 -468 -80 0 -80 0 0 553 0 553 432 354 c238 195
438 356 445 358 7 2 207 -157 445 -353 l433 -356 5 -366 c5 -334 7 -367 23
-377 12 -8 22 -8 35 0 15 10 17 41 22 344 5 327 5 332 24 311 35 -39 57 -27
137 70 41 49 75 98 77 109 2 13 -31 46 -117 117 l-121 98 0 348 0 348 -25 24
c-24 25 -26 25 -215 25 -189 0 -191 0 -215 -25 -24 -23 -25 -28 -25 -174 l0
-151 -195 160 c-234 194 -264 209 -342 175z m90 -77 c20 -11 1010 -819 1051
-859 19 -18 19 -19 -19 -61 -21 -24 -42 -44 -45 -46 -4 -1 -231 182 -506 408
-274 225 -506 410 -514 410 -8 0 -240 -185 -514 -411 -274 -225 -502 -408
-506 -407 -3 2 -24 22 -45 46 -38 42 -38 43 -19 61 35 33 1030 848 1050 859
25 15 40 15 67 0z m847 -284 c0 -163 -4 -294 -8 -292 -5 2 -77 59 -160 128
l-152 125 0 167 0 168 160 0 160 0 0 -296z m-1040 -1344 l0 -440 -240 0 -240
0 0 440 0 440 240 0 240 0 0 -440z m987 -220 c18 -10 43 -37 57 -58 18 -29 33
-41 59 -46 43 -8 97 -67 97 -105 0 -8 -88 -11 -280 -11 -192 0 -280 3 -280 11
0 38 54 97 97 105 26 5 41 17 59 46 47 74 126 98 191 58z m293 -340 l0 -40
-1120 0 -1120 0 0 40 0 40 1120 0 1120 0 0 -40z"/>
<path d="M1372 1268 c-17 -17 -17 -519 0 -536 17 -17 599 -17 616 0 17 17 17
519 0 536 -17 17 -599 17 -616 0z m268 -148 l0 -80 -100 0 -100 0 0 80 0 80
100 0 100 0 0 -80z m280 0 l0 -80 -100 0 -100 0 0 80 0 80 100 0 100 0 0 -80z
m-280 -240 l0 -80 -100 0 -100 0 0 80 0 80 100 0 100 0 0 -80z m280 0 l0 -80
-100 0 -100 0 0 80 0 80 100 0 100 0 0 -80z"/>
</g>
</svg>
