<?xml version="1.0" standalone="no"?>
<!DOCTYPE svg PUBLIC "-//W3C//DTD SVG 20010904//EN"
 "http://www.w3.org/TR/2001/REC-SVG-20010904/DTD/svg10.dtd">
<svg version="1.0" xmlns="http://www.w3.org/2000/svg"
 width="512.000000pt" height="512.000000pt" viewBox="0 0 512.000000 512.000000"
 preserveAspectRatio="xMidYMid meet">

<g transform="translate(0.000000,512.000000) scale(0.100000,-0.100000)"
fill="#000000" stroke="none">
<path d="M2510 4503 c-82 -29 -709 -318 -703 -324 11 -11 744 -339 757 -339
17 0 756 333 756 341 0 6 -526 246 -670 306 -52 21 -107 28 -140 16z"/>
<path d="M1212 3923 c-117 -53 -211 -97 -210 -98 13 -10 749 -345 759 -345 16
0 428 183 429 190 0 4 -408 190 -710 323 l-56 25 -212 -95z"/>
<path d="M3313 3842 c-205 -92 -373 -169 -373 -172 0 -8 413 -190 430 -190 21
0 738 333 739 344 2 10 -385 186 -408 186 -9 0 -184 -76 -388 -168z"/>
<path d="M360 3541 c-287 -128 -329 -156 -350 -228 -21 -68 -6 -128 43 -179
35 -35 78 -58 247 -133 l205 -91 434 195 c239 107 438 195 442 195 5 0 9 4 9
8 0 8 -739 352 -756 352 -5 0 -128 -54 -274 -119z"/>
<path d="M4113 3487 c-205 -94 -373 -174 -373 -177 0 -3 198 -94 440 -202
l440 -197 203 90 c139 63 213 102 238 126 37 35 59 88 59 139 -1 44 -34 109
-71 136 -28 21 -543 259 -559 258 -3 0 -173 -78 -377 -173z"/>
<path d="M2345 3409 c-110 -50 -204 -94 -208 -98 -7 -7 406 -204 429 -204 22
0 434 197 427 204 -15 14 -415 189 -431 188 -10 0 -107 -41 -217 -90z"/>
<path d="M1315 2946 c-236 -107 -428 -197 -426 -202 5 -11 430 -204 448 -204
23 0 864 393 856 401 -13 12 -424 199 -437 199 -6 -1 -204 -88 -441 -194z"/>
<path d="M3150 3043 c-113 -52 -209 -98 -213 -102 -4 -4 171 -90 390 -191 219
-101 412 -190 430 -198 31 -15 35 -13 262 89 127 57 227 106 223 110 -14 12
-863 389 -875 388 -6 0 -104 -43 -217 -96z"/>
<path d="M2132 2573 c-232 -108 -419 -200 -415 -204 4 -4 185 -87 402 -185
332 -149 401 -176 441 -176 40 0 108 26 422 167 205 92 388 175 406 184 l33
17 -425 197 c-234 108 -429 197 -433 196 -5 0 -198 -89 -431 -196z"/>
<path d="M100 2728 c-93 -57 -124 -152 -79 -245 11 -23 34 -52 49 -63 16 -12
571 -264 1232 -562 1116 -502 1207 -541 1258 -541 50 0 94 17 500 200 245 111
778 351 1185 533 407 183 757 341 777 351 92 47 124 179 65 267 -19 29 -45 51
-80 68 l-52 25 -1160 -522 -1160 -523 -70 0 -70 0 -1159 522 c-638 287 -1164
522 -1171 522 -6 0 -35 -15 -65 -32z"/>
<path d="M125 2041 c-130 -58 -165 -219 -66 -310 27 -25 326 -164 1226 -568
655 -293 1209 -539 1232 -545 33 -9 53 -9 85 -1 24 7 243 102 488 212 245 110
780 350 1190 534 558 250 754 343 781 368 100 92 64 252 -69 311 l-43 19
-1162 -523 c-1118 -503 -1164 -522 -1222 -522 -57 0 -96 16 -900 378 -1496
673 -1481 666 -1492 665 -4 0 -26 -8 -48 -18z"/>
</g>
</svg>
