<?xml version="1.0" standalone="no"?>
<!DOCTYPE svg PUBLIC "-//W3C//DTD SVG 20010904//EN"
 "http://www.w3.org/TR/2001/REC-SVG-20010904/DTD/svg10.dtd">
<svg version="1.0" xmlns="http://www.w3.org/2000/svg"
 width="256.000000pt" height="256.000000pt" viewBox="0 0 256.000000 256.000000"
 preserveAspectRatio="xMidYMid meet">

<g transform="translate(0.000000,256.000000) scale(0.100000,-0.100000)"
fill="#000000" stroke="none">
<path d="M1480 1866 l0 -546 480 0 480 0 0 288 0 289 -472 254 c-259 140 -475
256 -480 257 -4 2 -8 -242 -8 -542z m440 -226 l0 -160 -160 0 -160 0 0 160 0
160 160 0 160 0 0 -160z m400 0 l0 -160 -160 0 -160 0 0 160 0 160 160 0 160
0 0 -160z"/>
<path d="M120 2200 l0 -40 640 0 640 0 0 40 0 40 -640 0 -640 0 0 -40z"/>
<path d="M200 1828 l0 -253 250 250 c138 137 250 251 250 252 0 2 -112 3 -250
3 l-250 0 0 -252z"/>
<path d="M515 1780 l-300 -300 593 0 592 0 0 300 0 300 -172 0 -173 0 -202
-202 -203 -203 -27 28 -28 27 175 175 175 175 -65 0 -65 0 -300 -300z m47
-137 c24 -22 23 -35 -7 -63 l-26 -24 -26 27 -27 26 24 26 c28 29 37 31 62 8z"/>
<path d="M120 1360 l0 -40 640 0 640 0 0 40 0 40 -640 0 -640 0 0 -40z"/>
<path d="M320 760 l0 -480 560 0 560 0 0 368 c0 273 3 371 12 380 17 17 679
17 696 0 9 -9 12 -107 12 -380 l0 -368 40 0 40 0 0 480 0 480 -960 0 -960 0 0
-480z m520 0 l0 -360 -180 0 -180 0 0 360 0 360 180 0 180 0 0 -360z m440 0
l0 -360 -180 0 -180 0 0 360 0 360 180 0 180 0 0 -360z"/>
<path d="M1520 620 l0 -340 120 0 120 0 0 340 0 340 -120 0 -120 0 0 -340z
m200 20 l0 -40 -40 0 -40 0 0 40 0 40 40 0 40 0 0 -40z"/>
<path d="M1840 620 l0 -340 120 0 120 0 0 340 0 340 -120 0 -120 0 0 -340z
m120 20 l0 -40 -40 0 -40 0 0 40 0 40 40 0 40 0 0 -40z"/>
<path d="M120 160 l0 -40 1160 0 1160 0 0 40 0 40 -1160 0 -1160 0 0 -40z"/>
</g>
</svg>
